HIERARCHY
ROOT root     
{
	OFFSET 0.0000 0.0000 0.0000
	CHANNELS 6 Xposition Yposition Zposition Zrotation Yrotation Xrotation
	JOINT pelvis   
	{
		OFFSET 0.0000 0.0000 0.0000
		CHANNELS 3 Zrotation Yrotation Xrotation
		JOINT thorax   
		{
			OFFSET 0.0000 23.0750 -5.0000
			CHANNELS 3 Zrotation Yrotation Xrotation
			JOINT rclavicle
			{
				OFFSET 0.0000 28.0009 0.0000
				CHANNELS 3 Zrotation Yrotation Xrotation
				JOINT rhumerus 
				{
					OFFSET -18.5725 5.5939 0.0000
					CHANNELS 3 Zrotation Yrotation Xrotation
					JOINT rradius  
					{
						OFFSET -24.8459 0.0000 0.0000
						CHANNELS 3 Zrotation Yrotation Xrotation
						JOINT rhand    
						{
							OFFSET -24.5477 0.0000 0.0000
							CHANNELS 3 Zrotation Yrotation Xrotation
							End Site
							{
								OFFSET -8.1826 0.0000 0.0000
							}
						}
					}
				}
			}
			JOINT lclavicle
			{
				OFFSET 0.0000 28.0009 0.0000
				CHANNELS 3 Zrotation Yrotation Xrotation
				JOINT lhumerus 
				{
					OFFSET 18.5725 5.5939 0.0000
					CHANNELS 3 Zrotation Yrotation Xrotation
					JOINT lradius  
					{
						OFFSET 24.8459 0.0000 0.0000
						CHANNELS 3 Zrotation Yrotation Xrotation
						JOINT lhand    
						{
							OFFSET 24.5477 0.0000 0.0000
							CHANNELS 3 Zrotation Yrotation Xrotation
							End Site
							{
								OFFSET 8.1826 0.0000 0.0000
							}
						}
					}
				}
			}
			JOINT head     
			{
				OFFSET 0.0000 35.2030 0.0000
				CHANNELS 3 Zrotation Yrotation Xrotation
				End Site
				{
					OFFSET 0.0000 11.7343 0.0000
				}
			}
		}
		JOINT rfemur   
		{
			OFFSET -8.2817 0.0000 0.0000
			CHANNELS 3 Zrotation Yrotation Xrotation
			JOINT rtibia   
			{
				OFFSET 0.0000 -43.3627 0.0000
				CHANNELS 3 Zrotation Yrotation Xrotation
				JOINT rfoot    
				{
					OFFSET 0.0000 -38.2947 0.0000
					CHANNELS 3 Zrotation Yrotation Xrotation
					JOINT rtoes    
					{
						OFFSET 0.0000 0.0000 16.6054
						CHANNELS 3 Zrotation Yrotation Xrotation
						End Site
						{
							OFFSET 0.0000 0.0000 5.5351
						}
					}
				}
			}
		}
		JOINT lfemur   
		{
			OFFSET 8.2817 0.0000 0.0000
			CHANNELS 3 Zrotation Yrotation Xrotation
			JOINT ltibia   
			{
				OFFSET 0.0000 -43.3627 0.0000
				CHANNELS 3 Zrotation Yrotation Xrotation
				JOINT lfoot    
				{
					OFFSET 0.0000 -38.2947 0.0000
					CHANNELS 3 Zrotation Yrotation Xrotation
					JOINT ltoes    
					{
						OFFSET 0.0000 0.0000 16.6054
						CHANNELS 3 Zrotation Yrotation Xrotation
						End Site
						{
							OFFSET 0.0000 0.0000 5.5351
						}
					}
				}
			}
		}
	}
}
MOTION
Frames: 9
Frame Time: .0333333
-5.7595 87.365 1.3823 130.095 80.4046 151.108 0 -0 0 -4.62487 -3.46418 -5.45264 0.653999 -3.06105 -7.55758e-07 6.77209 64.4605 -23.1182 -0 30.8173 -0 11.7702 -10.4846 -1.08369 2.50151 12.7466 -6.40993e-06 39.627 -69.3981 -50.9006 0 -45.9773 0 -10.5593 5.17305 -0.4784 7.08435 0.24084 -18.5974 -3.00952 1.66236 -5.73627 -0 -0 25.3319 1.16919e-05 -4.64246 17.8599 -1.4266 8.17977e-06 -71.2526 -6.8299 4.09526 -29.2084 -0 -0 55.3732 -6.48209e-08 15.1522 4.74286 1.28273 1.701e-06 -31.9241 
-4.009 88.013 1.4468 129.068 80.5772 150.096 0 -0 0 -5.10381 -3.11624 -5.27822 1.0098 -2.81384 -2.23861e-07 8.20798 64.1598 -24.2779 -0 30.7126 -0 9.51771 -8.35944 -0.697105 2.63014 13.198 3.9908e-06 40.2373 -69.8648 -52.9631 3.41488e-07 -46.1457 -8.01665e-07 -10.1253 5.79637 -0.513907 8.33182 -0.28534 -18.9366 -3.19616 0.967202 -5.02406 -0 -0 24.9814 2.21712e-05 -3.73277 21.2355 -1.3537 6.29944e-06 -70.491 -7.63936 4.08773 -29.6753 -0 -0 51.2986 -2.06144e-05 14.8026 5.11544 1.34978 -6.69788e-06 -32.4726 
-2.269 88.594 1.5283 128.205 80.7874 149.267 0 -0 0 -5.51372 -2.77655 -5.1263 1.32366 -2.52035 -9.37469e-08 9.68908 63.8394 -25.7683 -0 30.7611 -0 7.39623 -6.18817 -0.400399 2.73528 13.6184 -2.18519e-05 40.6913 -70.2749 -55.0624 0 -46.3675 0 -9.55853 6.30468 -0.527598 9.5168 -0.781049 -19.3163 -3.33378 0.337305 -4.49234 -0 -0 25.0737 1.64945e-05 -3.17069 23.9682 -1.28919 3.76513e-06 -69.0132 -8.30477 3.98638 -30.0769 -0 -0 47.1003 -6.84444e-06 14.5445 5.65206 1.46369 -4.70628e-06 -33.246 
-0.5407 89.102 1.6295 127.607 81.0394 148.717 0 -0 0 -5.8259 -2.44896 -4.99177 1.57679 -2.18915 1.59884e-06 11.1903 63.5027 -27.5208 -0 31.0111 -0 5.43503 -4.08672 -0.194103 2.79916 14.0032 -8.64135e-06 41.0053 -70.6212 -57.2079 3.48151e-07 -46.644 -8.07537e-07 -8.91065 6.66614 -0.52 10.6112 -1.24227 -19.7459 -3.39951 -0.194702 -4.12783 -0 -0 25.6222 4.12203e-06 -3.00833 25.9972 -1.31959 1.31597e-06 -67.2199 -8.80256 3.81121 -30.4327 -0 -0 42.8319 1.12879e-05 14.3533 6.29963 1.60829 -2.16693e-07 -34.1714 
1.177 89.529 1.7528 127.366 81.3458 148.533 0 -0 0 -6.01509 -2.13413 -4.8666 1.76434 -1.83249 -7.12389e-07 12.6814 63.1611 -29.4451 -0 31.4857 -0 3.60708 -2.13367 -0.067199 2.80416 14.3416 -8.45003e-06 41.1842 -70.8889 -59.3953 0 -46.981 0 -8.24057 6.86535 -0.495191 11.5891 -1.66598 -20.2318 -3.37357 -0.6034 -3.90798 -0 -0 26.6189 7.73216e-06 -3.25786 27.3227 -1.49658 2.7997e-05 -65.4928 -9.12002 3.60424 -30.752 -0 -0 38.5448 -4.14858e-07 14.1804 7.02203 1.76932 7.30349e-06 -35.2487 
2.8864 89.871 1.8974 127.536 81.7112 148.758 0 -0 0 -6.07091 -1.82976 -4.74515 1.89559 -1.46311 4.46597e-07 14.1253 62.8353 -31.4471 -1.9777e-07 32.1898 -6.85415e-07 1.84907 -0.3696 -0.00600027 2.73919 14.6244 2.26768e-05 41.2336 -71.0716 -61.6177 3.5824e-07 -47.3817 -8.16453e-07 -7.60403 6.90579 -0.459491 12.4336 -2.05281 -20.7672 -3.25345 -0.8866 -3.81391 -0 -0 28.0505 1.64658e-05 -3.87016 27.9752 -1.81762 -1.42414e-05 -64.0132 -9.26954 3.41762 -31.0451 -0 -0 34.2837 -4.65442e-05 13.9622 7.81067 1.93527 -2.47014e-06 -36.572 
4.5942 90.123 2.064 128.211 82.1326 149.468 0 -0 0 -5.97818 -1.53011 -4.6131 1.9779 -1.09481 -7.10665e-07 15.5049 62.5562 -33.4427 -0 33.0975 -0 0.0872013 1.20208 0.000899983 2.59568 14.8425 -1.09385e-05 41.1379 -71.1742 -63.8413 3.64752e-07 -47.8453 -8.22244e-07 -7.03971 6.80756 -0.419204 13.131 -2.40393 -21.3375 -3.02801 -1.0348 -3.80281 -0 -0 29.8649 -2.07278e-05 -4.78432 28.05 -2.25391 2.34042e-05 -63.0165 -9.27201 3.33223 -31.3163 -0 -0 30.1119 -2.01207e-05 13.5991 8.64048 2.08137 -8.90697e-06 -37.9808 
6.3061 90.283 2.2447 129.32 82.6028 150.576 0 -0 0 -5.764 -1.2303 -4.46492 2.03301 -0.739396 1.7871e-07 16.7932 62.3494 -35.3651 -0 34.1677 -0 -1.74628 2.59611 -0.0395997 2.38008 14.9898 1.21327e-05 40.8986 -71.1945 -66.0509 0 -48.3711 0 -6.5617 6.60641 -0.379099 13.6831 -2.72395 -21.9194 -2.73411 -1.08781 -3.85289 -0 -0 32.0384 2.24114e-05 -5.86568 27.6143 -2.72632 -1.89809e-05 -62.3204 -9.18937 3.40004 -31.5656 -0 -0 26.0716 4.02563e-05 13.0185 9.54597 2.19571 2.99359e-06 -39.6396 
8.0313 90.348 2.4427 131.009 83.1575 152.216 0 -0 0 -5.4096 -0.921705 -4.28691 2.06656 -0.4065 1.92561e-07 17.983 62.2478 -37.1662 -0 35.3466 -0 -3.69476 3.84133 -0.123899 2.08995 15.0619 -1.02129e-05 40.5229 -71.1426 -68.232 0 -48.9505 0 -6.1559 6.34028 -0.341307 14.0872 -3.01665 -22.4815 -2.35219 -1.03 -3.90962 -0 -0 34.477 3.90371e-05 -7.05683 26.8251 -3.19739 5.76258e-05 -62.0698 -9.06562 3.73681 -31.8205 -0 -0 22.2936 -1.43009e-05 12.0716 10.4831 2.22844 2.01772e-05 -41.2363 
